<svg xmlns="http://www.w3.org/2000/svg" version="1.1" xmlns:xlink="http://www.w3.org/1999/xlink" xmlns:svgjs="http://svgjs.dev/svgjs" width="128" height="128" viewBox="0 0 128 128"><g transform="matrix(0.8046875,0,0,0.8046875,12.333870967741937,12.333870967741937)"><svg viewBox="0 0 155 155" data-background-color="#cbb2da" preserveAspectRatio="xMidYMid meet" height="128" width="128" xmlns="http://www.w3.org/2000/svg" xmlns:xlink="http://www.w3.org/1999/xlink"><g id="tight-bounds" transform="matrix(1,0,0,1,0.25,0.25)"><svg viewBox="0 0 154.5 154.5" height="154.5" width="154.5"><g><svg></svg></g><g><svg viewBox="0 0 154.5 154.5" height="154.5" width="154.5"><g transform="matrix(1,0,0,1,60.02881334934498,47.746371)"><svg viewBox="0 0 34.44237330131004 59.00725799999999" height="59.00725799999999" width="34.44237330131004"><g><svg viewBox="0 0 34.44237330131004 59.00725799999999" height="59.00725799999999" width="34.44237330131004"><g><svg viewBox="0 0 34.44237330131004 59.00725799999999" height="59.00725799999999" width="34.44237330131004"><g id="textblocktransform"><svg viewBox="0 0 34.44237330131004 59.00725799999999" height="59.00725799999999" width="34.44237330131004" id="textblock"><g><svg viewBox="0 0 34.44237330131004 59.00725799999999" height="59.00725799999999" width="34.44237330131004"><g transform="matrix(1,0,0,1,0,0)"><svg width="34.44237330131004" viewBox="3.3 -34 20.05 34.35" height="59.00725799999999" data-palette-color="#7d3efe"><path d="M21.5-32.45L21.5-32.45 21.5-28.2Q18.45-30.2 14.2-30.2L14.2-30.2Q11.15-30.2 9.35-28.78 7.55-27.35 7.55-25.05L7.55-25.05Q7.55-23.85 8.03-22.9 8.5-21.95 9.7-21.13 10.9-20.3 11.75-19.88 12.6-19.45 14.4-18.65L14.4-18.65Q16.1-17.9 17-17.48 17.9-17.05 19.33-16.13 20.75-15.2 21.48-14.33 22.2-13.45 22.78-12.03 23.35-10.6 23.35-8.95L23.35-8.95Q23.35-4.5 20.3-2.08 17.25 0.35 12.45 0.35L12.45 0.35Q7.15 0.35 3.45-1.8L3.45-1.8 3.45-6.15Q7.1-3.4 12.35-3.4L12.35-3.4Q15.5-3.4 17.3-4.8 19.1-6.2 19.1-8.85L19.1-8.85Q19.1-9.95 18.68-10.83 18.25-11.7 17.28-12.43 16.3-13.15 15.43-13.63 14.55-14.1 13.05-14.8L13.05-14.8Q12.75-14.95 12.15-15.2L12.15-15.2Q10-16.15 8.88-16.75 7.75-17.35 6.23-18.53 4.7-19.7 4-21.25 3.3-22.8 3.3-24.85L3.3-24.85Q3.3-29.15 6.38-31.58 9.45-34 14.1-34L14.1-34Q18.45-34 21.5-32.45Z" opacity="1" transform="matrix(1,0,0,1,0,0)" fill="#7d3efe" class="wordmark-text-0" data-fill-palette-color="primary" id="text-0"></path></svg></g></svg></g></svg></g></svg></g></svg></g></svg></g><g><path d="M48.859 33.816A17.221 17.221 0 0 1 105.641 33.816L100.32 33.816A11.9 11.9 0 0 0 54.18 33.816L48.859 33.816M48.859 120.684A17.221 17.221 0 0 0 105.641 120.684L100.32 120.684A11.9 11.9 0 0 1 54.18 120.684L48.859 120.684" fill="#7d3efe" stroke="transparent" data-fill-palette-color="tertiary"></path></g></svg></g><defs></defs></svg><rect width="154.5" height="154.5" fill="none" stroke="none" visibility="hidden"></rect></g></svg></g></svg>